# xmcd
#
# Track frame offsets:
#	150
#	16234
#	32691
#	47688
#	61795
#	74616
#	94086
#	109101
#	123148
#	137000
#	152667
#	167034
#	183296
#	194229
#	209885
#	229261
#	246146
#	264076
#
# Disc length: 3738 seconds
#
# Revision: 0
# Processed by: cddbd v1.5.2PL0 Copyright (c) Steve Scherf et al.
# Submitted via: EasyCDDAExtractor 15.0.0.1
#
DISCID=fc0e9812
DTITLE=Delicias do Forro - Ao vivo em Goiânia
DYEAR=1900
DGENRE=Acoustic
TTITLE0=Cara
TTITLE1=Me de uma chance
TTITLE2=Kelly
TTITLE3=Nao vivo sem voce 
TTITLE4=Um aperto um amasso
TTITLE5=Nao desligue o telefone
TTITLE6=Seu olhar
TTITLE7=Presente de deus
TTITLE8=Forro da pegadinha
TTITLE9=Quero ter voce
TTITLE10=Nao me meta em confusao
TTITLE11=Nao tem cachaca que cura
TTITLE12=Loucuras na cama
TTITLE13=Ante virus
TTITLE14=Vitima do amor
TTITLE15=Fazer beber
TTITLE16=Cobertor
TTITLE17=Nossa hitoria
EXTD=
EXTT0=
EXTT1=
EXTT2=
EXTT3=
EXTT4=
EXTT5=
EXTT6=
EXTT7=
EXTT8=
EXTT9=
EXTT10=
EXTT11=
EXTT12=
EXTT13=
EXTT14=
EXTT15=
EXTT16=
EXTT17=
PLAYORDER=
